# xmcd CD database file
#
# Track frame offsets:
#	150
#	16421
#	29396
#	43009
#	55091
#	68298
#	83060
#	97027
#	110498
#	123762
#	135739
#	148601
#	161419
#	173188
#	184756
#	197206
#	210522
#	222277
#	235141
#	247564
#	260097
#	273058
#	286306
#	298115
#	311122
#
# Disc length: 4297 seconds
#
# Revision: 0
# Processed by: cddbd v1.5.2PL0 Copyright (c) Steve Scherf et al.
# Submitted via: CDex 1.51
#
DISCID=6610c719
DTITLE=Big Bill Broonzy - Chicago Calling
DYEAR=1998
DGENRE=Blues
TTITLE0=The Southern Blues   
TTITLE1=C and A Blues
TTITLE2=Married Life Is A Pain
TTITLE3=Pneumonia Blues (I Keep On Aching)
TTITLE4=Detroit Special
TTITLE5=Southern Flood Blues
TTITLE6=Horney Frog
TTITLE7=Somebody's Got To Go
TTITLE8=It's A Low Down Dirty Shame
TTITLE9=Trucking Little Woman
TTITLE10=It's Your Time Now
TTITLE11=Night Time Is The Right Time
TTITLE12=Just A Dream (On My Mind)
TTITLE13=Baby I Done Got Wise
TTITLE14=She Never
TTITLE15=Woodie Woodie
TTITLE16=Too Many Drivers
TTITLE17=Ride, Alberta, Ride
TTITLE18=Please Be My So and So
TTITLE19=Don'T You Be No Fool
TTITLE20=Just A Dream No 2
TTITLE21=Jivin' Mr. Fuller Blues
TTITLE22=What Is That She Got
TTITLE23=When I Been Drinking
TTITLE24=All By Myself
EXTD=YEAR: 1998
EXTT0=
EXTT1=
EXTT2=
EXTT3=
EXTT4=
EXTT5=
EXTT6=
EXTT7=
EXTT8=
EXTT9=
EXTT10=
EXTT11=
EXTT12=
EXTT13=
EXTT14=
EXTT15=
EXTT16=
EXTT17=
EXTT18=
EXTT19=
EXTT20=
EXTT21=
EXTT22=
EXTT23=
EXTT24=
PLAYORDER=
